<?xml version="1.0" standalone="no"?>
<!DOCTYPE svg PUBLIC "-//W3C//DTD SVG 20010904//EN"
 "http://www.w3.org/TR/2001/REC-SVG-20010904/DTD/svg10.dtd">
<svg version="1.0" xmlns="http://www.w3.org/2000/svg"
 width="410.000000pt" height="410.000000pt" viewBox="0 0 410.000000 410.000000"
 preserveAspectRatio="xMidYMid meet">
<metadata>
Created by potrace 1.14, written by Peter Selinger 2001-2017
</metadata>
<g transform="translate(0.000000,410.000000) scale(0.100000,-0.100000)"
fill="#000000" stroke="none">
<path d="M1680 2901 c0 -25 6 -27 13 -6 4 8 2 17 -3 20 -6 4 -10 -3 -10 -14z"/>
<path d="M1581 2824 c-138 -53 -312 -197 -395 -327 -78 -121 -124 -251 -145
-401 -19 -138 14 -340 85 -509 100 -238 289 -429 519 -522 55 -23 90 -30 167
-33 113 -5 196 15 313 76 74 39 186 141 218 200 l18 32 -65 -45 c-270 -189
-611 -161 -893 73 -96 80 -196 239 -243 387 -34 105 -39 309 -11 427 51 214
160 371 378 541 91 70 148 128 126 127 -5 -1 -37 -12 -72 -26z"/>
<path d="M1895 2740 c-84 -20 -155 -43 -155 -52 0 -4 -3 -7 -7 -7 -21 3 -33
-2 -33 -15 0 -8 -25 -40 -55 -71 -33 -34 -53 -61 -48 -68 5 -9 2 -8 -9 0 -17
15 -28 8 -28 -18 0 -10 -12 -27 -26 -38 -15 -12 -24 -21 -20 -21 3 0 -12 -17
-34 -39 -22 -21 -40 -44 -40 -50 0 -6 -6 -10 -12 -9 -7 2 -12 -3 -10 -9 2 -12
-18 -18 -42 -14 -5 1 -4 -4 2 -12 10 -11 9 -17 -1 -25 -17 -14 -42 1 -32 19 6
11 5 11 -4 3 -20 -18 -60 -147 -72 -230 -15 -104 -5 -225 26 -321 36 -111 32
-108 101 -76 50 24 71 27 144 27 52 -1 101 -7 126 -17 41 -15 42 -15 53 11 38
81 152 162 230 162 34 0 38 3 60 53 36 78 138 175 236 223 l79 39 126 0 c123
0 126 -1 201 -36 166 -79 269 -251 269 -449 0 -224 -144 -448 -381 -592 -302
-183 -730 -186 -1039 -8 -36 21 -68 37 -71 36 -4 0 -17 10 -28 24 -20 23 -21
23 -11 3 9 -19 8 -23 -5 -23 -10 0 -13 -5 -9 -12 6 -10 4 -10 -7 0 -15 14 -33
16 -25 3 9 -13 -29 -20 -50 -8 -17 9 -17 8 1 -10 11 -11 22 -16 23 -12 6 14
24 10 20 -3 -13 -39 202 -156 378 -205 94 -27 110 -28 309 -28 200 1 214 2
299 28 196 61 367 167 514 322 282 295 411 690 347 1060 -13 76 -53 184 -55
147 0 -8 -20 7 -44 32 -60 62 -135 84 -220 67 -56 -12 -60 -11 -83 11 -20 19
-24 31 -21 66 3 34 0 42 -14 42 -29 0 -76 -49 -95 -100 l-19 -49 -59 53 c-92
82 -179 133 -284 167 -84 28 -113 32 -226 35 -71 2 -148 -1 -170 -6z"/>
<path d="M970 2438 c-104 -241 -116 -537 -34 -800 26 -83 107 -251 143 -298
l20 -25 25 55 c14 30 26 61 26 68 0 7 -16 44 -35 83 -50 98 -91 226 -111 349
-14 89 -16 144 -11 363 4 141 5 257 3 257 -2 0 -14 -24 -26 -52z"/>
<path d="M1270 1277 c0 -2 15 -16 33 -33 l32 -29 -29 33 c-28 30 -36 37 -36
29z"/>
</g>
</svg>
